<?xml version="1.0" standalone="no"?>
<!DOCTYPE svg PUBLIC "-//W3C//DTD SVG 20010904//EN"
 "http://www.w3.org/TR/2001/REC-SVG-20010904/DTD/svg10.dtd">
<svg version="1.0" xmlns="http://www.w3.org/2000/svg"
 width="217.000000pt" height="207.000000pt" viewBox="0 0 217.000000 207.000000"
 preserveAspectRatio="xMidYMid meet">

<g transform="translate(0.000000,207.000000) scale(0.100000,-0.100000)"
fill="#000000" stroke="none">
<path d="M933 1900 c-170 -31 -363 -137 -483 -266 -90 -97 -164 -229 -202
-361 -20 -66 -23 -101 -23 -233 0 -183 12 -236 85 -385 108 -219 282 -369 520
-446 166 -54 377 -51 542 6 275 96 479 312 560 592 19 66 23 102 23 233 0 131
-4 167 -23 233 -84 292 -297 509 -592 602 -71 23 -107 28 -220 31 -74 1 -159
-1 -187 -6z m332 -770 l175 0 0 -90 0 -90 -175 0 -175 0 0 -132 0 -133 -177
177 -178 178 175 175 175 175 3 -130 3 -130 174 0z"/>
</g>
</svg>
